<svg width="45" height="42" viewBox="0 0 45 42" fill="none" xmlns="http://www.w3.org/2000/svg">
<path d="M12.7347 5.22846C7.11945 7.87494 2.49054 10.1113 2.44171 10.1894C2.2171 10.5312 2.51984 10.7851 3.8382 11.371L5.11749 11.9374V13.7636C5.11749 14.7597 5.14679 17.0546 5.17609 18.8515L5.24445 22.123L4.75616 22.289C4.1507 22.5038 3.51593 23.0996 3.23273 23.7148C2.92999 24.3788 2.93976 25.5703 3.25226 26.1757C3.54523 26.7421 3.99445 27.2206 4.47296 27.4648L4.84406 27.6601L4.7757 28.4999C4.4632 32.5331 3.10577 35.4824 0.820618 37.0937C0.0588989 37.6406 0.0393677 37.6601 0.0393677 38.0996C0.0393677 38.539 0.0979614 38.5878 2.38312 40.2773C4.56085 41.8788 4.61945 41.8984 5.41046 41.0878C6.82648 39.6621 7.39288 38.1972 7.38312 35.9902C7.38312 34.9453 7.30499 34.2714 6.9339 32.1328C6.68976 30.707 6.46515 29.1445 6.42609 28.666L6.36749 27.7871L6.87531 27.6113C7.50031 27.3867 8.08624 26.8691 8.41827 26.2343C8.76007 25.58 8.78937 24.4081 8.47687 23.7343C8.22296 23.1972 7.5589 22.5136 7.12921 22.3574L6.80695 22.2402L6.74835 18.9589C6.67023 14.9746 6.66046 12.6992 6.72882 12.6992C6.75812 12.6992 10.3909 14.3886 14.7855 16.4589C19.1898 18.5292 22.9886 20.2675 23.2327 20.3261C23.4769 20.3847 23.8675 20.414 24.0921 20.3945C24.3655 20.3554 27.9788 18.705 34.7269 15.5214L44.9612 10.6972V10.3945C44.9612 10.2285 44.9026 10.0429 44.8441 9.99408C44.6878 9.86713 25.2542 0.814396 24.6194 0.570255C24.3362 0.462833 23.9261 0.394474 23.5452 0.40424C22.9495 0.40424 22.7249 0.511662 12.7347 5.22846Z" fill="#9A51D3"/>
<path d="M31.0158 18.7539C27.7248 20.3066 24.8733 21.625 24.6682 21.6836C24.1604 21.8203 23.5158 21.8105 22.8908 21.6445C22.5979 21.5664 19.7756 20.2871 16.6311 18.8125C13.4865 17.3281 10.8596 16.1172 10.7912 16.1172C10.7033 16.1172 10.6838 17.1426 10.7033 20.4824L10.7326 24.8574L10.9963 25.4238C12.0022 27.5723 15.4299 29.3008 20.1565 30.0527C21.7483 30.3066 26.0647 30.3066 27.676 30.0527C31.8752 29.3984 35.0979 27.9629 36.426 26.1465C37.1486 25.1797 37.1486 25.1504 37.1486 20.248C37.1486 17.8652 37.1193 15.9219 37.0803 15.9219C37.0315 15.9219 34.3068 17.2012 31.0158 18.7539Z" fill="#9A51D3"/>
</svg>
